# Wavefront OBJ file made by Mineways version 7.19, http://mineways.com
# Minecraft world: OneBlock by IJAMinecraft (1.16.3)
# Terrain file name: default
# Color scheme: Standard
# Wed Oct 14 18:08:09 2020

# Selection location min to max: -1, 0, 0 to -1, 255, 0
#   Non-empty selection location min to max: -1, 60, 0 to -1, 60, 0

# Set render type: Wavefront OBJ relative indices
# Units for the model vertex data itself: meters

# 8 vertices, 6 faces (12 triangles), 1 blocks, 0 billboards/bits
# block dimensions: X=1 by Y=1 (height) by Z=1 blocks
# File type: Export full color texture patterns
# Texture output RGB: YES
# Texture output A: YES
# Texture output RGBA: YES
# OBJ relative coordinates
# Make groups objects: no
# Export separate objects: YES
# Individual blocks: no
#   Material per family: YES
#   Split by block type: no
# G3D full material: no
# Make Z the up direction instead of Y: no
# Create composite overlay faces: no
# Center model: YES
# Export lesser blocks: YES
# Fatten lesser blocks: no
# Create block faces at the borders: YES
# Make tree leaves solid: no
# Use biomes: no
# Rotate model 0.000000 degrees
# Scale model by making each block 1000 mm high
# Data operation options:
#   Fill air bubbles: no; Seal off entrances: no; Fill in isolated tunnels in base of model: no
#   Connect parts sharing an edge: no; Connect corner tips: no; Weld all shared edges: no
#   Delete floating objects: trees and parts smaller than 16 blocks: no
#   Hollow out bottom of model, making the walls 1000 mm thick: no; Superhollow: no
# Melt snow blocks: no
#   Debug: show separate parts as colors: no
#   Debug: show weld blocks in bright colors: no

# Full world path: C:\Users\User\AppData\Roaming\.minecraft\saves\OneBlock by IJAMinecraft (1.16.3)
# Full terrainExt.png path: default
# Full current path: C:\Users\User\Downloads\blender-2.90.1-windows64\blender-2.90.1-windows64

mtllib Mineways2Skfb.mtl

o OneBlock_by_IJAMinecraft_(1.16.3)__-1_0_0_to_-1_255_0
vn -1 0 0
vn 0 -1 0
vn 0 0 -1
vn 1 0 0
vn 0 1 0
vn 0 0 1
vn -0.707107 0 -0.707107
vn -0.707107 0 0.707107
vn 0.707107 0 -0.707107
vn 0.707107 0 0.707107
vn -0.707107 -0.707107 0
vn 0 -0.707107 -0.707107
vn 0.707107 -0.707107 0
vn 0 -0.707107 0.707107
vn -0.707107 0.707107 0
vn 0 0.707107 -0.707107
vn 0.707107 0.707107 0
vn 0 0.707107 0.707107
vn -0.92388 0 -0.382683
vn -0.92388 0 0.382683
vn 0.92388 0 -0.382683
vn 0.92388 0 0.382683
vn -0.382683 0 -0.92388
vn -0.382683 0 0.92388
vn 0.382683 0 -0.92388
vn 0.382683 0 0.92388
vn -0.397273 0.9177 0
vn 0.397273 -0.9177 0
vn 0.397273 0.9177 0
vn -0.397273 -0.9177 0
vn 0 0.9177 -0.397273
vn 0 -0.9177 0.397273
vn 0 0.9177 0.397273
vn 0 -0.9177 -0.397273
vn -0.440932 0.897541 0
vn 0.440932 -0.897541 0
vn 0.440932 0.897541 0
vn -0.440932 -0.897541 0
vn 0 0.897541 -0.440932
vn 0 -0.897541 0.440932
vn 0 0.897541 0.440932
vn 0 -0.897541 -0.440932
# grass_block_side
vt 0.107421875 0.966796875
vt 0.138671875 0.966796875
vt 0.138671875 0.998046875
vt 0.107421875 0.998046875
# dirt
vt 0.072265625 0.966796875
vt 0.103515625 0.966796875
vt 0.103515625 0.998046875
vt 0.072265625 0.998046875
# grass_block_top
vt 0.001953125 0.966796875
vt 0.033203125 0.966796875
vt 0.033203125 0.998046875
vt 0.001953125 0.998046875
v 0 60 0
v 0 60 1
v 0 61 1
v 0 61 0
v 1 60 1
v 1 60 0
v 1 61 0
v 1 61 1

g Grass_Block
usemtl Grass_Block
f -7/-11/-42 -6/-10/-42 -5/-9/-42 -8/-12/-42
f -7/-7/-41 -8/-8/-41 -3/-5/-41 -4/-6/-41
f -8/-11/-40 -5/-10/-40 -2/-9/-40 -3/-12/-40
f -4/-12/-39 -3/-11/-39 -2/-10/-39 -1/-9/-39
f -6/-3/-38 -1/-2/-38 -2/-1/-38 -5/-4/-38
f -7/-12/-37 -4/-11/-37 -1/-10/-37 -6/-9/-37
